<svg id="Layer_1" xmlns="http://www.w3.org/2000/svg" viewBox="0 0 200 200">
  <path class="eraser" d="M155.1 83.9l-39-39S133 26 153.4 46.4s1.7 37.5 1.7 37.5z"/>
  <path class="yellow" d="M85.214 153.764l-39.032-39.032L116.114 44.8l39.032 39.032z"/>
  <path class="tip" d="M40.9 143.2l-3.6 19.7 19.4-3.9z"/>
  <path class="pencilOutline" d="M45.3 116.2L120.5 41c7.3-7.3 19.3-7.3 26.6 0L159 52.8c7.3 7.3 7.3 19.3 0 26.6l-75.2 75.2-46.5 7.8 8-46.2z"/>
  <path class="pencilLines" d="M155.1 83.9l-39-39.1M85.2 153.8l-39.1-39.1M56.8 160.3l-17.2-17.2"/>
</svg>