<svg id="Layer_1" data-name="Layer 1" xmlns="http://www.w3.org/2000/svg" viewBox="0 0 504 504"><defs><style>.cls-1{fill:#bbbdbf;}.cls-2{fill:#808184;}</style></defs><title>Artboard 1</title><path class="cls-1" d="M232.46,209.7a31.18,31.18,0,0,0-9-16,31.34,31.34,0,0,1,7.78,14.82c2.4,11.29-.64,23-4.78,33.8a167,167,0,0,1-56.11,73.79c-4.24,3.14-10.62,2.33-14.62-1.12l-.2-.18a14.17,14.17,0,0,0,1.37,1.35c4,3.44,10.38,4.26,14.62,1.12a167,167,0,0,0,56.11-73.79C231.83,232.73,234.86,221,232.46,209.7Z"/><path d="M218.24,224.46c2.36-8.71,4.71-18,1.91-26.61a6.28,6.28,0,0,0-2.47-3.69c-1.54-.89-3.47-.52-5.19-.09a97.33,97.33,0,0,0-26.82,11c-5.53,3.36-10.68,7.32-16.27,10.57s-11.79,5.8-18.25,6-13.25-2.43-16.94-7.74c-.4-.58-.64-1.58,0-1.8,3.62,2.37,8.32,2.58,12.51,1.5s8-3.33,11.62-5.64c12.52-7.93,24.58-17.09,38.73-21.49a31.18,31.18,0,0,1,10.73-1.69c11.53.57,20.74,11.08,23.14,22.37s-.64,23-4.78,33.8a167,167,0,0,1-56.11,73.79c-4.24,3.14-10.62,2.33-14.62-1.12s-5.79-9-5.66-14.24,2-10.37,4.29-15.12c4.42-9.15,16.16-23.21,23.59-30.13-8.94,11.21-23.82,28.86-26.09,43,5.38-14.21,12.51-27.91,22.88-39,1-1,.9-1.77,2.31-3.18a164.35,164.35,0,0,1,37.72-26.06A7.34,7.34,0,0,0,217.2,227a7.17,7.17,0,0,0,1-2.52m-19.45,39.69c7.09-10.73,14.1-21.78,17.57-34.17a129.13,129.13,0,0,0-60.49,61c-2.73,5.82-4.86,13.2-.88,18.24a3.25,3.25,0,0,0,1.71,1.27,3.87,3.87,0,0,0,3-1C175.93,297.68,187.73,280.89,198.79,264.15Z"/><path d="M299.5,225.64a10,10,0,0,0,0-1.14c-.07-.83-.31-1.8-1.22-2.05a2.41,2.41,0,0,0-1.78.3c-1.5.82-2,2.5-3.57,3.3a1.37,1.37,0,0,1-.6.15,1.07,1.07,0,0,1-1.29-.35c-3.17-1-5.22-2.21-8.43.11-2.6,1.88-4.1,4.92-5.21,7.94-2.19,6-3.25,12.32-5.71,18.19S265,263.55,258.9,265.37a2.25,2.25,0,0,1-1.13.12c-1.27-.29-1.23-2.1-.86-3.35a89.61,89.61,0,0,1,4.06-11c1-2.29,2.16-4.63,2.15-7.14s-1.6-5.22-4.08-5.54c-3.5-.46-5.68,3.55-7.08,6.79a67.75,67.75,0,0,1-13.51,20.18c-.55.57-1.48,1.14-2,.57a1.49,1.49,0,0,1-.31-1,36.48,36.48,0,0,1,21.06-35c.81-.36,1.8-1,1.61-1.84a1.72,1.72,0,0,0-.33-.63c-3.5-4.76-10.9-5.12-16.06-2.22s-8.48,8.16-11.2,13.4a58.88,58.88,0,0,0-4.58,11c-1.23,4.36-1.65,9.21.34,13.28s7,6.91,11.19,5.28c2.58-1,4.36-3.33,6-5.56l3-4.14c1.52,4.15,3.51,8.78,7.68,10.24,3.39,1.19,7.25-.23,9.91-2.65s4.35-5.68,6-8.88a27,27,0,0,1-29.92,28.36c-6.16-.68-12.77-4.52-13.48-10.67-.11-1-1.78-1-2.25-.09a3.33,3.33,0,0,0,.29,2.87c4.35,9.63,14.71,16.11,25.27,16.16a30.46,30.46,0,0,0,26-15.35c6.07-10.76,5.23-24,9.06-35.79,1-3,2.47-6.18,5.26-7.74,1.1,1.23,1.29,3,1.87,4.53s2,3.09,3.62,2.66a2.13,2.13,0,0,0,.64-.3c-.48-2.21,0-4.49.19-6.7a22.91,22.91,0,0,1,1.54-7.36A6.52,6.52,0,0,0,299.5,225.64Z"/><path d="M332.89,230.18c.94,1.81,3.46,2,5.45,1.58s4-1.32,6-.82c3.1.79,4.45,4.66,3.83,7.8s-2.61,5.79-4.11,8.62a29.94,29.94,0,0,0-3.48,14.52A126.66,126.66,0,0,1,350.8,248c2-2.39,4.33-4.82,7.35-5.65s6.9.67,7.5,3.75a9.16,9.16,0,0,1-.89,4.83,98.15,98.15,0,0,0-6.1,31.14,3.78,3.78,0,0,0,.84,3.06c1.38,1.19,3.49-.09,4.62-1.52a16.14,16.14,0,0,0,3-6.21,9.12,9.12,0,0,1-4,11.82c-4.9,2.36-11.13-.51-13.95-5.16s-2.91-10.48-2-15.85,2.6-10.59,3.13-16l-6.2,8.2c-1.8,2.39-3.93,5-6.9,5.33-3.83.46-7.13-3.26-7.67-7.08s.92-7.61,2.34-11.19l3.48-8.75a3.38,3.38,0,0,0,.22-2.9c-.7-1.19-2.62-1-3.57,0a7.64,7.64,0,0,0-1.49,3.8,39.53,39.53,0,0,1-12.08,21c-4.3,3.89-10.57,6.87-15.79,4.34-3.54-1.72-5.62-5.67-5.95-9.59s.87-7.82,2.45-11.43a52.6,52.6,0,0,1,5.23-9.24,16.42,16.42,0,0,1,5.9-5.62,9.81,9.81,0,0,1,8.24-.08c2.1,1,4,3.49,2.77,5.47a5.75,5.75,0,0,1-1.71,1.58,32.15,32.15,0,0,0-13.21,23.79c-.11,1.74.37,4,2.11,4.23a3.4,3.4,0,0,0,2-.58c9.49-5.3,13.85-16.41,17.39-26.69.54-1.57.94-3.64-.41-4.61a18.36,18.36,0,0,1-6.14-6.84,9.32,9.32,0,0,1,.27-8.89c1.7-2.59,5.44-3.83,8.11-2.26,2.09,1.24,3.07,3.79,3.25,6.21s-.3,4.84-.38,7.27a5,5,0,0,0,.39,2.48m-5.6-14.88a8.52,8.52,0,0,0-2,6.45,12.38,12.38,0,0,0,2.66,6.32c.46.59,1.23,1.2,1.86.81q.2-4.12.15-8.25a9.25,9.25,0,0,0-.43-3.19A3.29,3.29,0,0,0,327.29,215.3Z"/><path d="M169.09,265.68a93.42,93.42,0,0,0-6.4,7.4c1.08-1.45,2.26-3,4-3.58a9.06,9.06,0,0,1-4.77,4.18"/><path d="M167.89,265.3c-2.22,2.39-4.42,4.8-6.4,7.4l2.4.75a8.48,8.48,0,0,1,3.4-3.17l-2-.91a7.87,7.87,0,0,1-4,3.53c-.54.22-1.08.83-.71,1.4s1.45.37,2,.16a11,11,0,0,0,5.52-4.83c.68-1.21-1.42-1.14-2-.91a11,11,0,0,0-4.55,4c-1.08,1.45,1.65,1.73,2.4.75,2-2.6,4.18-5,6.4-7.4,1.22-1.31-1.57-1.64-2.4-.75Z"/><path d="M163.13,273.88l-5.39,8a23.39,23.39,0,0,0,2.7-4c.29-.58.53-1.19.86-1.75a12.12,12.12,0,0,1,4-3.6"/><path d="M161.75,273.74l-5.39,8c-.84,1.25,2,1.32,2.58.53a25.83,25.83,0,0,0,3-4.54,11,11,0,0,1,4.28-4.58c1.63-1.09-.77-2-1.9-1.23a14,14,0,0,0-4.25,3.83c-1.24,1.92-2.12,3.91-3.55,5.74l2.58.53,5.39-8c.86-1.28-2.09-1.27-2.76-.28Z"/><path d="M166.43,269.43c1,0,3.12-1.44,1.18-1.44-1,0-3.12,1.44-1.18,1.44Z"/><path d="M158.48,281.24l-2.59,4.28a13.93,13.93,0,0,0-.85,1.55c-.46,1-.66,2.16-1.21,3.14s-1.66,2-1.76,3.28c0,.06.1,0,.05,0"/><path d="M157.11,281.11a42.47,42.47,0,0,0-3.74,6.62c-.77,2-2.28,3.81-2.75,5.89-.09.39.28.71.61.8h0c.78.21,2.16-.1,2.31-1.06v0c.22-1.37-2.73-1-2.93.26v0l2.31-1.06h0l.61.8c.27-1.21,1.09-2,1.67-3s.75-2.11,1.21-3.14a54.33,54.33,0,0,1,3.44-5.83c.8-1.32-2.14-1.28-2.75-.26Z"/><path d="M157.84,283.42l-1.28,2.09a12.07,12.07,0,0,0-1.83,4.06"/><path d="M156.5,283.42c-1.22,2-2.72,4-3.22,6.34-.21,1,2.69.52,2.89-.4.46-2.2,1.86-4.07,3-6,.66-1.07-2.22-.74-2.68,0Z"/><path class="cls-1" d="M261.84,269.73c-2.48,1.31-5.67,1.63-8,.07a6.38,6.38,0,0,1-1.66-1.65,6.84,6.84,0,0,0,2.32,2.76c2.33,1.56,5.52,1.23,8-.07a18.87,18.87,0,0,0,4.88-4,20.33,20.33,0,0,0,.69-2.53l-.43.41A21.75,21.75,0,0,1,261.84,269.73Z"/><path class="cls-1" d="M244.21,264.52c-1.64,2.23-3.42,4.57-6,5.56-2.91,1.12-6.17.13-8.57-1.93,2.42,2.81,6.32,4.41,9.74,3.1,2.58-1,4.36-3.33,6-5.56Z"/><path class="cls-1" d="M328.08,217.14a1.66,1.66,0,0,1,.52.22,2.18,2.18,0,0,0-1.35-1.14,7.24,7.24,0,0,0-1.39,5.08,10.37,10.37,0,0,0,1.87,5,2.12,2.12,0,0,0,.63.62,10.24,10.24,0,0,1-1.67-4.67A7.24,7.24,0,0,1,328.08,217.14Z"/><path class="cls-1" d="M366.85,245.36A8.67,8.67,0,0,1,366,250a92.84,92.84,0,0,0-6.1,30.23,3.59,3.59,0,0,0,.84,3,1.91,1.91,0,0,0,.6.34,5.26,5.26,0,0,1-.28-2.18,92.84,92.84,0,0,1,6.1-30.23,8.67,8.67,0,0,0,.89-4.68,4.32,4.32,0,0,0-1.86-2.69A4,4,0,0,1,366.85,245.36Z"/><path class="cls-1" d="M309.33,263a5.68,5.68,0,0,1-.47-2.8,30.35,30.35,0,0,1,13.21-22.69,5.65,5.65,0,0,0,1.71-1.5c1-1.55-.1-3.44-1.67-4.58a3,3,0,0,1,.5,3.47,5.65,5.65,0,0,1-1.71,1.5,30.35,30.35,0,0,0-13.21,22.69C307.59,260.59,308,262.51,309.33,263Z"/><path class="cls-1" d="M369.36,280.28c-.14.47-.3.93-.49,1.38a9,9,0,0,1-5.53,9.1c-4.21,1.71-9.19.25-12.61-2.68,3.35,3.72,9.11,5.82,13.86,3.89S371.51,284.49,369.36,280.28Z"/><path class="cls-1" d="M157,308.78c-3.41-4.55-1.51-11.11.93-16.29,11-23.33,30.33-44.64,53.39-56.16.19-.61.38-1.23.56-1.85-17.41,8.35-33,23.07-44.25,38.72a8,8,0,0,1-1,1.47q-.66,1-1.31,1.92l1.17-.72c-.43.28-.86.57-1.28.88a113.62,113.62,0,0,0-8.29,14.67,37.43,37.43,0,0,0-1.6,3.94,8.29,8.29,0,0,1-.86,3.2c-.65,3.37-.42,6.71,1.66,9.34A3.84,3.84,0,0,0,157,308.78Z"/><path class="cls-1" d="M346.86,258.09l-2,2.55c-1.23,1.54-2.62,2.92-4,4.38-2.57,2.79-6.38,2-9.11-.13,1.38,1.6,3.57,3.33,5.71,3.08,5.26-.61,8.61-8.3,11.6-12.06Z"/><path class="cls-1" d="M277.42,280.84a32.23,32.23,0,0,1-27.3,15.35A30.9,30.9,0,0,1,230,288.39a30.84,30.84,0,0,0,21.39,9A32.23,32.23,0,0,0,278.65,282Z"/><path class="cls-2" d="M165.41,274.1l0,0h0l0,0Z"/><path class="cls-1" d="M318.29,262.17c-4.37,3.71-10.65,6.47-15.73,3.82a9,9,0,0,1-1.83-1.27,9.34,9.34,0,0,0,2.95,2.46c5.08,2.66,11.36-.1,15.73-3.82Z"/></svg>